#!OML:ASF H:\Martial Arts Walks\Project 1\Capture day 1\Session 1\male.ASF
:FULLY-SPECIFIED
:DEGREES
1976
root -2.15051 14.6276 -4.2865 15.0217 -16.2297 -3.16851
lowerback 15.9079 4.1998 -6.48104
upperback -0.757161 4.19334 -1.32587
thorax -10.1578 2.28582 1.18144
lowerneck -2.01143 -1.16288 -4.49408
upperneck -0.575093 -1.47155 6.89534
head 0.260503 -0.706925 2.96995
rclavicle -3.77691e-015 -1.19271e-014
rhumerus -34.8599 7.20282 -77.1717
rradius 48.7921
rwrist 2.62949
rhand -10.3533 -53.1229
rfingers 7.12502
rthumb 15.6434 -82.5104
lclavicle -3.77691e-015 -1.19271e-014
lhumerus -0.686583 -19.1687 83.2358
lradius 36.4741
lwrist -10.3089
lhand -28.5863 34.2245
lfingers 7.12502
lthumb -1.95218 64.1954
rfemur -22.1886 -4.31166 12.4293
rtibia 87.2371
rfoot -10.273 -26.0873
rtoes 14.6788
lfemur -63.2946 17.7093 -19.4632
ltibia 75.2769
lfoot -14.0109 22.4572
ltoes -3.43192
1977
root -2.1827 14.6228 -4.4574 15.4403 -16.749 -3.61354
lowerback 15.2528 4.426 -6.24545
upperback -0.962608 4.5874 -1.32967
thorax -10.0218 2.46593 0.979616
lowerneck -1.97646 -1.26181 -4.36726
upperneck -0.303899 -1.619 6.69271
head 0.345602 -0.779913 2.87526
rclavicle 4.7112e-014 -1.03368e-014
rhumerus -34.7071 8.42104 -77.921
rradius 49.6223
rwrist 2.77593
rhand -10.2665 -53.234
rfingers 7.12502
rthumb 15.727 -82.615
lclavicle 4.7112e-014 -1.03368e-014
lhumerus -1.00083 -19.5877 83.6349
lradius 36.6299
lwrist -10.226
lhand -27.2259 34.4471
lfingers 7.12502
lthumb -0.638238 64.4259
rfemur -19.0023 -4.2011 11.1025
rtibia 82.6842
rfoot -11.0451 -27.532
rtoes 18.603
lfemur -64.2078 18.5506 -19.0781
ltibia 75.0811
lfoot -13.3878 21.8399
ltoes -3.24766
1978
root -2.21124 14.6229 -4.61918 15.6815 -17.3386 -4.1158
lowerback 14.733 4.63986 -5.86377
upperback -1.08491 4.98001 -1.3344
thorax -9.85238 2.63596 0.697462
lowerneck -2.20103 -1.20305 -4.42932
upperneck 0.197661 -1.55395 6.69148
head 0.540217 -0.73974 2.88635
rclavicle -1.5704e-014 -7.95139e-015
rhumerus -34.5276 9.76934 -78.6781
rradius 50.5409
rwrist 2.89155
rhand -10.8376 -52.4143
rfingers 7.12502
rthumb 15.1769 -81.8377
lclavicle -1.5704e-014 -7.95139e-015
lhumerus -1.33741 -20.0722 83.8867
lradius 36.9101
lwrist -9.95068
lhand -26.8594 34.1441
lfingers 7.12502
lthumb -0.284319 64.1237
rfemur -15.6745 -4.19157 9.84385
rtibia 77.5629
rfoot -10.6163 -28.2441
rtoes 17.6943
lfemur -64.7725 19.3279 -18.5287
ltibia 74.8449
lfoot -12.6587 21.3918
ltoes -3.32723
1979
root -2.24189 14.6249 -4.7867 15.9057 -17.9882 -4.66182
lowerback 14.3001 4.86083 -5.45227
upperback -1.23924 5.37888 -1.31343
thorax -9.76219 2.81009 0.42184
lowerneck -2.22648 -1.15877 -4.53562
upperneck 0.509317 -1.50539 6.74937
head 0.642464 -0.712471 2.92706
rclavicle 8.40859e-014 -5.32743e-014
rhumerus -34.3396 11.1957 -79.5162
rradius 51.4936
rwrist 2.93299
rhand -11.251 -52.0986
rfingers 7.12502
rthumb 14.7787 -81.5517
lclavicle 8.40859e-014 -5.32743e-014
lhumerus -1.89639 -20.2472 84.2108
lradius 37.4017
lwrist -9.73865
lhand -26.3005 33.1623
lfingers 7.12502
lthumb 0.255553 63.1419
rfemur -12.3891 -4.28709 8.67244
rtibia 72.0409
rfoot -9.95556 -27.8603
rtoes 19.1358
lfemur -65.2469 20.0682 -17.8674
ltibia 74.5746
lfoot -12.057 21.0305
ltoes -2.81325
1980
root -2.26887 14.6263 -4.94837 15.9693 -18.6724 -5.14256
lowerback 13.9908 5.06264 -4.99324
upperback -1.34817 5.74774 -1.31199
thorax -9.67803 2.96592 0.103219
lowerneck -2.2686 -1.08015 -4.52767
upperneck 0.840875 -1.41233 6.67079
head 0.74836 -0.663412 2.90087
rclavicle 1.53064e-014 1.19271e-014
rhumerus -34.251 12.6602 -80.3461
rradius 52.564
rwrist 3.21849
rhand -11.5212 -51.2624
rfingers 7.12502
rthumb 14.5184 -80.7344
lclavicle 1.53064e-014 1.19271e-014
lhumerus -2.4579 -20.5675 84.417
lradius 37.9054
lwrist -9.3449
lhand -25.806 32.0981
lfingers 7.12502
lthumb 0.733081 62.0766
rfemur -9.1657 -4.56188 7.48558
rtibia 66.2461
rfoot -6.88028 -27.0282
rtoes 14.833
lfemur -65.4438 20.5771 -17.114
ltibia 74.2835
lfoot -11.3302 20.9256
ltoes -2.5402
1981
root -2.30036 14.6245 -5.12225 16.1119 -19.2996 -5.78918
lowerback 13.732 5.21029 -4.39574
upperback -1.49375 6.06795 -1.25053
thorax -9.64621 3.09419 -0.21917
lowerneck -2.11274 -1.03395 -4.37457
upperneck 0.900786 -1.35952 6.50486
head 0.73312 -0.63995 2.81695
rclavicle 2.44505e-014 -1.66979e-014
rhumerus -34.1246 14.203 -81.2256
rradius 53.7145
rwrist 3.35491
rhand -11.6605 -50.8607
rfingers 7.12502
rthumb 14.3842 -80.3423
lclavicle 2.44505e-014 -1.66979e-014
lhumerus -3.15746 -20.7453 84.5596
lradius 38.5852
lwrist -8.81949
lhand -24.9953 31.1833
lfingers 7.12502
lthumb 1.51607 61.1576
rfemur -6.13233 -4.94234 6.60926
rtibia 60.3803
rfoot -4.42558 -25.452
rtoes 10.4003
lfemur -65.7204 20.9747 -16.0726
ltibia 73.9811
lfoot -10.4324 20.8898
ltoes -1.97452
1982
root -2.33385 14.6217 -5.29708 16.1621 -19.9497 -6.34884
lowerback 13.5316 5.33222 -3.88833
upperback -1.61004 6.33469 -1.17443
thorax -9.6202 3.20111 -0.465426
lowerneck -2.09577 -0.924429 -4.38765
upperneck 1.13442 -1.22234 6.46613
head 0.795848 -0.570428 2.80905
rclavicle 2.08724e-014 -1.59028e-015
rhumerus -34.058 15.7647 -82.0693
rradius 55.0235
rwrist 3.56158
rhand -11.8069 -50.1315
rfingers 7.12502
rthumb 14.243 -79.6231
lclavicle 2.08724e-014 -1.59028e-015
lhumerus -3.99974 -20.6 84.7316
lradius 39.3924
lwrist -8.57175
lhand -24.5678 29.7652
lfingers 7.12502
lthumb 1.92899 59.7362
rfemur -3.22679 -5.4331 5.7048
rtibia 54.5503
rfoot -1.89618 -23.4841
rtoes 4.63412
lfemur -65.789 21.1683 -14.9562
ltibia 73.6246
lfoot -9.49139 21.0051
ltoes -1.22774
1983
root -2.37345 14.6202 -5.47722 16.1993 -20.6822 -6.90794
lowerback 13.3289 5.47026 -3.46974
upperback -1.71257 6.60889 -1.07449
thorax -9.58761 3.31674 -0.63649
lowerneck -2.01561 -0.833148 -4.37292
upperneck 1.30038 -1.10881 6.39907
head 0.826878 -0.514411 2.7859
rclavicle 2.20651e-014 -2.38542e-015
rhumerus -33.8321 17.2747 -82.9056
rradius 56.2264
rwrist 3.94263
rhand -12.1422 -48.4571
rfingers 7.12502
rthumb 13.92 -77.9712
lclavicle 2.20651e-014 -2.38542e-015
lhumerus -4.82893 -20.533 84.7935
lradius 40.2189
lwrist -8.22593
lhand -24.3991 28.1156
lfingers 7.12502
lthumb 2.09195 58.0851
rfemur -0.574066 -5.90924 4.88089
rtibia 48.9418
rfoot 1.07072 -21.156
rtoes 0.666949
lfemur -65.7158 21.3444 -13.7668
ltibia 73.2142
lfoot -8.53695 21.2396
ltoes -0.149382
1984
root -2.42116 14.63 -5.65943 16.2595 -21.4633 -7.53721
lowerback 13.1447 5.61421 -3.09063
upperback -1.85094 6.88604 -0.934319
thorax -9.61239 3.43697 -0.74687
lowerneck -1.77626 -0.732485 -4.33173
upperneck 1.45352 -0.987486 6.32294
head 0.825239 -0.457079 2.75472
rclavicle -4.23411e-014 -2.38542e-015
rhumerus -33.8764 18.7582 -83.7434
rradius 57.6931
rwrist 4.34696
rhand -11.5559 -47.8521
rfingers 7.12502
rthumb 14.4849 -77.3265
lclavicle -4.23411e-014 -2.38542e-015
lhumerus -5.88614 -20.2109 84.8697
lradius 41.2244
lwrist -8.05184
lhand -24.2745 26.1285
lfingers 7.12502
lthumb 2.21222 56.0968
rfemur 1.74323 -6.21526 4.32068
rtibia 43.7746
rfoot 3.60833 -19.7493
rtoes -7.36062
lfemur -65.4641 21.5255 -12.4187
ltibia 72.7317
lfoot -7.65719 21.5111
ltoes 1.16392
1985
root -2.47682 14.6377 -5.8444 16.444 -22.3157 -8.36975
lowerback 12.9032 5.77597 -2.6829
upperback -2.01328 7.20093 -0.715012
thorax -9.63599 3.57675 -0.791448
lowerneck -1.58958 -0.63383 -4.3219
upperneck 1.70433 -0.871335 6.29476
head 0.865033 -0.400625 2.74589
rclavicle -2.22639e-014 -1.03368e-014
rhumerus -33.832 20.2546 -84.5512
rradius 59.1092
rwrist 4.79301
rhand -11.2355 -46.5332
rfingers 7.12502
rthumb 14.7936 -75.9851
lclavicle -2.22639e-014 -1.03368e-014
lhumerus -7.00288 -19.728 84.9326
lradius 42.3025
lwrist -7.91505
lhand -23.9812 24.4385
lfingers 7.12502
lthumb 2.49556 54.4036
rfemur 3.75854 -6.1802 4.22399
rtibia 39.2608
rfoot 2.15905 -18.2217
rtoes -18.7939
lfemur -65.1242 21.7251 -10.7685
ltibia 72.2372
lfoot -6.90488 21.4824
ltoes 2.80262
1986
root -2.53647 14.6367 -6.04153 16.7758 -23.0999 -9.47109
lowerback 12.6998 5.93704 -2.08466
upperback -2.19492 7.5497 -0.431585
thorax -9.68479 3.72395 -0.882517
lowerneck -1.53865 -0.542824 -4.23283
upperneck 2.09713 -0.769224 6.27341
head 0.9741 -0.347525 2.72534
rclavicle -4.53229e-014 -1.66979e-014
rhumerus -33.7784 21.632 -85.3184
rradius 60.5001
rwrist 5.30167
rhand -10.8472 -45.3897
rfingers 7.12502
rthumb 15.1677 -74.8138
lclavicle -4.53229e-014 -1.66979e-014
lhumerus -8.12637 -19.1753 84.98
lradius 43.3165
lwrist -8.21242
lhand -24.5163 22.1863
lfingers 7.12502
lthumb 1.97868 52.1568
rfemur 5.5103 -6.20588 4.56232
rtibia 35.6038
rfoot -0.613482 -16.8307
rtoes -23.7171
lfemur -64.8567 21.9068 -8.80394
ltibia 71.7925
lfoot -6.69657 20.7846
ltoes 4.99974
1987
root -2.59861 14.6362 -6.2393 17.202 -23.7267 -10.8359
lowerback 12.5256 6.02617 -1.26454
upperback -2.32818 7.84506 -0.0468171
thorax -9.67726 3.8363 -0.972622
lowerneck -1.70432 -0.46175 -4.12648
upperneck 2.61748 -0.680411 6.26342
head 1.16308 -0.296399 2.70722
rclavicle -6.42074e-014 -1.03368e-014
rhumerus -33.6263 23.0355 -86.014
rradius 61.9862
rwrist 5.7001
rhand -10.497 -44.2666
rfingers 7.12502
rthumb 15.505 -73.6649
lclavicle -6.42074e-014 -1.03368e-014
lhumerus -9.11945 -18.5741 84.9296
lradius 44.3622
lwrist -8.08873
lhand -24.5678 21.0225
lfingers 7.12502
lthumb 1.929 50.9935
rfemur 6.95356 -6.06077 5.4026
rtibia 32.7579
rfoot -1.87324 -14.1415
rtoes -26.3395
lfemur -64.5965 21.9499 -6.53619
ltibia 71.3958
lfoot -6.6786 19.5975
ltoes 7.02595
1988
root -2.66201 14.6466 -6.43451 17.6546 -24.1448 -12.2325
lowerback 12.3601 6.05794 -0.322601
upperback -2.44997 8.08229 0.360365
thorax -9.64479 3.91434 -1.09089
lowerneck -1.89764 -0.368762 -4.09297
upperneck 3.17007 -0.578272 6.35853
head 1.36917 -0.236992 2.74007
rclavicle 7.95139e-016 5.56597e-015
rhumerus -33.529 24.2507 -86.6311
rradius 63.4872
rwrist 6.19581
rhand -9.93657 -42.8453
rfingers 7.12502
rthumb 16.0447 -72.2009
lclavicle 7.95139e-016 5.56597e-015
lhumerus -10.148 -17.8566 84.9284
lradius 45.4701
lwrist -7.9246
lhand -24.794 20.1308
lfingers 7.12502
lthumb 1.7105 50.1037
rfemur 8.02544 -5.77338 6.56538
rtibia 30.6474
rfoot -2.56457 -12.5106
rtoes -25.4604
lfemur -64.3314 21.7526 -4.23978
ltibia 71.0616
lfoot -7.5754 17.8768
ltoes 6.8647
